<svg width="208" height="25" viewBox="0 0 208 25" fill="none" xmlns="http://www.w3.org/2000/svg">
<path d="M17.1484 13.75H14.2188V22.5H10.3125V13.75H7.10938V10.1562H10.3125V7.38281C10.3125 4.25781 12.1875 2.5 15.0391 2.5C16.4062 2.5 17.8516 2.77344 17.8516 2.77344V5.85938H16.25C14.6875 5.85938 14.2188 6.79688 14.2188 7.8125V10.1562H17.6953L17.1484 13.75Z" fill="#1E2832"/>
<path d="M81.4297 8.4375C81.4297 8.63281 81.4297 8.78906 81.4297 8.98438C81.4297 14.4141 77.3281 20.625 69.7891 20.625C67.4453 20.625 65.2969 19.9609 63.5 18.7891C63.8125 18.8281 64.125 18.8672 64.4766 18.8672C66.3906 18.8672 68.1484 18.2031 69.5547 17.1094C67.7578 17.0703 66.2344 15.8984 65.7266 14.2578C66 14.2969 66.2344 14.3359 66.5078 14.3359C66.8594 14.3359 67.25 14.2578 67.5625 14.1797C65.6875 13.7891 64.2812 12.1484 64.2812 10.1562V10.1172C64.8281 10.4297 65.4922 10.5859 66.1562 10.625C65.0234 9.88281 64.3203 8.63281 64.3203 7.22656C64.3203 6.44531 64.5156 5.74219 64.8672 5.15625C66.8984 7.61719 69.9453 9.25781 73.3438 9.45312C73.2656 9.14062 73.2266 8.82812 73.2266 8.51562C73.2266 6.25 75.0625 4.41406 77.3281 4.41406C78.5 4.41406 79.5547 4.88281 80.3359 5.70312C81.2344 5.50781 82.1328 5.15625 82.9141 4.6875C82.6016 5.66406 81.9766 6.44531 81.1172 6.95312C81.9375 6.875 82.7578 6.64062 83.4609 6.32812C82.9141 7.14844 82.2109 7.85156 81.4297 8.4375Z" fill="#1E2832"/>
<path d="M129.656 20H126.023V8.32031H129.656V20ZM127.82 6.75781C126.688 6.75781 125.75 5.78125 125.75 4.60938C125.75 3.00781 127.469 1.99219 128.875 2.8125C129.539 3.16406 129.93 3.86719 129.93 4.60938C129.93 5.78125 128.992 6.75781 127.82 6.75781ZM143.211 20H139.617V14.3359C139.617 12.9688 139.578 11.25 137.703 11.25C135.828 11.25 135.555 12.6953 135.555 14.2188V20H131.922V8.32031H135.398V9.92188H135.438C135.945 9.02344 137.117 8.04688 138.875 8.04688C142.547 8.04688 143.25 10.4688 143.25 13.5938V20H143.211Z" fill="#1E2832"/>
<path d="M195.5 8.00781C197.961 8.00781 199.992 10.0391 199.992 12.5C199.992 15 197.961 16.9922 195.5 16.9922C193 16.9922 191.008 15 191.008 12.5C191.008 10.0391 193 8.00781 195.5 8.00781ZM195.5 15.4297C197.102 15.4297 198.391 14.1406 198.391 12.5C198.391 10.8984 197.102 9.60938 195.5 9.60938C193.859 9.60938 192.57 10.8984 192.57 12.5C192.57 14.1406 193.898 15.4297 195.5 15.4297ZM201.203 7.85156C201.203 7.26562 200.734 6.79688 200.148 6.79688C199.562 6.79688 199.094 7.26562 199.094 7.85156C199.094 8.4375 199.562 8.90625 200.148 8.90625C200.734 8.90625 201.203 8.4375 201.203 7.85156ZM204.172 8.90625C204.25 10.3516 204.25 14.6875 204.172 16.1328C204.094 17.5391 203.781 18.75 202.766 19.8047C201.75 20.8203 200.5 21.1328 199.094 21.2109C197.648 21.2891 193.312 21.2891 191.867 21.2109C190.461 21.1328 189.25 20.8203 188.195 19.8047C187.18 18.75 186.867 17.5391 186.789 16.1328C186.711 14.6875 186.711 10.3516 186.789 8.90625C186.867 7.5 187.18 6.25 188.195 5.23438C189.25 4.21875 190.461 3.90625 191.867 3.82812C193.312 3.75 197.648 3.75 199.094 3.82812C200.5 3.90625 201.75 4.21875 202.766 5.23438C203.781 6.25 204.094 7.5 204.172 8.90625ZM202.297 17.6562C202.766 16.5234 202.648 13.7891 202.648 12.5C202.648 11.25 202.766 8.51562 202.297 7.34375C201.984 6.60156 201.398 5.97656 200.656 5.70312C199.484 5.23438 196.75 5.35156 195.5 5.35156C194.211 5.35156 191.477 5.23438 190.344 5.70312C189.562 6.01562 188.977 6.60156 188.664 7.34375C188.195 8.51562 188.312 11.25 188.312 12.5C188.312 13.7891 188.195 16.5234 188.664 17.6562C188.977 18.4375 189.562 19.0234 190.344 19.3359C191.477 19.8047 194.211 19.6875 195.5 19.6875C196.75 19.6875 199.484 19.8047 200.656 19.3359C201.398 19.0234 202.023 18.4375 202.297 17.6562Z" fill="#1E2832"/>
</svg>
